# xmcd
#
# Track frame offsets:
#	150
#	41949
#	79657
#	105606
#	167453
#
# Disc length: 2692 seconds
#
# Revision: 0
# Processed by: cddbd v1.5.2PL0 Copyright (c) Steve Scherf et al.
# Submitted via: audiograbber 1.83.01
#
DISCID=340a8205
DTITLE=Grateful Dead - 93-04-04 Nassau Veterans Memorial Coliseum, Uniondale NY
DYEAR=1900
DGENRE=
TTITLE0=Eyes Of The World
TTITLE1=Samson and Delilah
TTITLE2=Broken Arrow
TTITLE3=Estimated Prophet
TTITLE4=Drums
EXTD=
EXTT0=
EXTT1=
EXTT2=
EXTT3=
EXTT4=
PLAYORDER=
